<svg width="9" height="16" viewBox="0 0 9 16" fill="none" xmlns="http://www.w3.org/2000/svg">
<path d="M0.0625 8.00684C0.0625 7.90169 0.0818685 7.80485 0.120605 7.71631C0.159342 7.62223 0.217448 7.53646 0.294922 7.45898L6.87744 1.01758C7.02686 0.873698 7.20671 0.801758 7.41699 0.801758C7.56087 0.801758 7.68815 0.834961 7.79883 0.901367C7.91504 0.967773 8.00635 1.05908 8.07275 1.17529C8.14469 1.28597 8.18066 1.41325 8.18066 1.55713C8.18066 1.76188 8.10596 1.94173 7.95654 2.09668L1.91357 8.00684L7.95654 13.917C8.10596 14.0719 8.18066 14.2518 8.18066 14.4565C8.18066 14.6004 8.14469 14.7277 8.07275 14.8384C8.00635 14.9546 7.91504 15.0459 7.79883 15.1123C7.68815 15.1787 7.56087 15.2119 7.41699 15.2119C7.20671 15.2119 7.02686 15.1372 6.87744 14.9878L0.294922 8.55469C0.217448 8.47721 0.159342 8.39421 0.120605 8.30566C0.0818685 8.21159 0.0625 8.11198 0.0625 8.00684Z" fill="white"/>
</svg>
