<svg width="21" height="21" viewBox="0 0 21 21" fill="none" xmlns="http://www.w3.org/2000/svg">
<path d="M0.515595 10.6631C0.515595 10.2588 0.612275 9.89258 0.805634 9.56445C1.00485 9.23633 1.26853 8.97559 1.59665 8.78223C1.92478 8.58887 2.28806 8.49219 2.68649 8.49219H8.32028V2.8584C8.32028 2.4541 8.41696 2.08789 8.61032 1.75977C8.80954 1.43164 9.07321 1.1709 9.40134 0.977539C9.72946 0.77832 10.0927 0.678711 10.4912 0.678711C10.8955 0.678711 11.2617 0.77832 11.5898 0.977539C11.9179 1.1709 12.1787 1.43164 12.372 1.75977C12.5713 2.08789 12.6709 2.4541 12.6709 2.8584V8.49219H18.3047C18.7031 8.49219 19.0664 8.58887 19.3945 8.78223C19.7226 8.97559 19.9834 9.23633 20.1767 9.56445C20.3759 9.89258 20.4756 10.2588 20.4756 10.6631C20.4756 11.0615 20.3759 11.4248 20.1767 11.7529C19.9834 12.0811 19.7226 12.3447 19.3945 12.5439C19.0664 12.7373 18.7031 12.834 18.3047 12.834H12.6709V18.4678C12.6709 18.8662 12.5713 19.2295 12.372 19.5576C12.1787 19.8916 11.9179 20.1553 11.5898 20.3486C11.2617 20.542 10.8955 20.6387 10.4912 20.6387C10.0927 20.6387 9.72946 20.542 9.40134 20.3486C9.07321 20.1553 8.80954 19.8916 8.61032 19.5576C8.41696 19.2295 8.32028 18.8662 8.32028 18.4678V12.834H2.68649C2.28806 12.834 1.92478 12.7373 1.59665 12.5439C1.26853 12.3447 1.00485 12.0811 0.805634 11.7529C0.612275 11.4248 0.515595 11.0615 0.515595 10.6631Z" fill="white"/>
</svg>
