<svg width="136" height="136" viewBox="0 0 136 136" fill="none" xmlns="http://www.w3.org/2000/svg">
<path d="M21.3041 13.5217C22.4892 7.34682 28.4555 3.30175 34.6304 4.48676L122.262 21.3041C128.437 22.4892 132.482 28.4555 131.297 34.6304L114.48 122.262C113.295 128.437 107.328 132.482 101.153 131.297L13.5217 114.48C7.34683 113.295 3.30175 107.328 4.48677 101.153L21.3041 13.5217Z" fill="#FAFAF7" stroke="#FAFAF7" stroke-width="4"/>
<path d="M26.3268 19.1851C27.3677 13.7613 32.6084 10.2082 38.0323 11.2491L116.599 26.3267C122.022 27.3676 125.576 32.6083 124.535 38.0322L109.457 116.599C108.416 122.022 103.175 125.575 97.7515 124.535L19.1852 109.457C13.7613 108.416 10.2082 103.175 11.2491 97.7514L26.3268 19.1851Z" stroke="#6CA0DC" stroke-width="4"/>
<path d="M116.756 41.4224L115.151 41.1144L116.77 32.6774L118.375 32.9855L116.756 41.4224Z" fill="#6CA0DC"/>
<path d="M113.208 40.7415L110.948 40.3077L109.686 33.2168L109.66 33.2119L105.927 39.3441L103.692 38.9153L105.311 30.4784L106.839 30.7716L105.59 37.2825L105.616 37.2874L109.408 31.2645L110.731 31.5184L112.024 38.5172L112.049 38.5221L113.299 32.0112L114.827 32.3045L113.208 40.7415Z" fill="#6CA0DC"/>
<path d="M101.796 38.5514L99.5357 38.1176L98.2735 31.0267L98.2479 31.0218L94.5146 37.154L92.2802 36.7252L93.8993 28.2883L95.4275 28.5815L94.178 35.0924L94.2036 35.0973L97.9958 29.0744L99.3185 29.3283L100.612 36.3271L100.637 36.332L101.887 29.8212L103.415 30.1144L101.796 38.5514Z" fill="#6CA0DC"/>
<path d="M90.3581 36.3564L88.7529 36.0483L90.3721 27.6114L91.9773 27.9194L90.3581 36.3564Z" fill="#6CA0DC"/>
<path d="M80.4028 25.6982L81.4301 25.8953L81.4836 26.9347C81.9979 26.5678 82.4856 26.3388 82.947 26.2477C83.4083 26.1565 83.9172 26.1643 84.4736 26.2711C85.1585 26.4026 85.753 26.6351 86.2571 26.9687C86.7511 27.3085 87.1479 27.7155 87.4475 28.1895C87.747 28.6636 87.9482 29.1881 88.0508 29.7632C88.1449 30.3367 88.1338 30.9267 88.0174 31.5333C87.9025 32.132 87.6952 32.6803 87.3955 33.1782C87.0872 33.6744 86.7062 34.0873 86.2524 34.4168C85.7986 34.7462 85.2793 34.9774 84.6946 35.1102C84.1014 35.2414 83.4623 35.2413 82.7774 35.1098C82.2809 35.0145 81.8221 34.8611 81.4011 34.6497C80.97 34.4444 80.6024 34.186 80.2983 33.8745C79.9927 33.5708 79.759 33.2156 79.5974 32.8088C79.4358 32.4021 79.3704 31.9566 79.4012 31.4725L80.9679 31.7731C80.9577 32.0571 81.0058 32.3154 81.112 32.5482C81.2082 32.7872 81.3497 32.9981 81.5365 33.181C81.7233 33.3638 81.9426 33.5162 82.1944 33.638C82.4462 33.7598 82.7176 33.8487 83.0087 33.9045C83.4967 33.9982 83.9379 33.9889 84.3322 33.8767C84.718 33.7629 85.0516 33.5738 85.3332 33.3092C85.6132 33.0526 85.8459 32.742 86.0313 32.3773C86.2081 32.011 86.3351 31.627 86.4122 31.2253C86.4893 30.8235 86.5135 30.4198 86.4848 30.014C86.4476 29.6067 86.3472 29.228 86.1836 28.8781C86.0184 28.536 85.7777 28.2407 85.4615 27.9922C85.1367 27.742 84.7303 27.57 84.2423 27.4764C83.8329 27.3897 83.46 27.3671 83.1236 27.4087C82.7857 27.4582 82.4908 27.5609 82.239 27.7168C81.9771 27.8789 81.7625 28.095 81.5953 28.3651C81.428 28.6352 81.3061 28.9467 81.2295 29.2995L83.6695 29.7678L83.454 30.8903L79.5502 30.1411L80.4028 25.6982Z" fill="#6CA0DC"/>
<path d="M77.0399 33.8005L72.6609 32.9601C71.6507 32.7662 70.9316 32.4199 70.5036 31.9212C70.0756 31.4225 69.9304 30.8148 70.0679 30.0979C70.145 29.6961 70.2735 29.3737 70.4533 29.1305C70.6316 28.8952 70.8223 28.7112 71.0252 28.5786C71.2267 28.4539 71.4198 28.3726 71.6047 28.3345C71.7809 28.2949 71.9098 28.2706 71.9914 28.2617L71.996 28.2381C71.862 28.1961 71.724 28.1288 71.582 28.0362C71.4315 27.9419 71.3013 27.8108 71.1915 27.6427C71.0803 27.4825 71.003 27.2839 70.9597 27.0469C70.9079 26.8082 70.9137 26.5235 70.9772 26.1926C71.0724 25.6963 71.1208 25.2359 71.1224 24.8115C71.1139 24.3933 71.0406 24.0812 70.9027 23.875L72.6235 24.2052C72.7085 24.4094 72.7428 24.6243 72.7261 24.8498C72.7009 25.0736 72.6687 25.288 72.6293 25.4928C72.5553 25.8788 72.5175 26.2146 72.5159 26.5001C72.5129 26.7936 72.5624 27.0441 72.6646 27.2515C72.7653 27.4669 72.9272 27.6409 73.1503 27.7735C73.3648 27.9046 73.6561 28.0054 74.0243 28.076L76.3871 28.5295L77.0538 25.0555L78.659 25.3635L77.0399 33.8005ZM76.1717 29.6521L73.5392 29.1468C73.0255 29.0483 72.6148 29.0838 72.3071 29.2534C71.9978 29.431 71.8001 29.7442 71.714 30.1933C71.6626 30.4611 71.6638 30.686 71.7177 30.8678C71.77 31.0575 71.8642 31.2145 72.0001 31.3386C72.1275 31.461 72.2866 31.5569 72.4775 31.6262C72.6598 31.6939 72.8537 31.7474 73.0592 31.7868L75.666 32.2871L76.1717 29.6521Z" fill="#6CA0DC"/>
<path d="M65.5453 31.5945L63.8374 31.2668L61.925 22.1521L63.6458 22.4823L64.0776 24.8808L67.7375 25.5831L69.0265 23.5149L70.6831 23.8328L65.5453 31.5945ZM67.0855 26.6219L64.286 26.0846L64.9638 29.976L65.0024 29.9834L67.0855 26.6219Z" fill="#6CA0DC"/>
<path d="M61.4848 30.8153L54.0623 29.3908L54.3073 28.1147L57.2223 28.6741L58.5965 21.5133L60.2017 21.8214L58.8275 28.9821L61.7297 29.5391L61.4848 30.8153Z" fill="#6CA0DC"/>
<path d="M52.9994 29.1868L51.3942 28.8788L53.0133 20.4418L54.6185 20.7499L52.9994 29.1868Z" fill="#6CA0DC"/>
<path d="M45.7142 26.7474C46.2022 26.841 46.6433 26.8317 47.0377 26.7196C47.4234 26.6057 47.7571 26.4166 48.0387 26.1521C48.3187 25.8954 48.5514 25.5848 48.7368 25.2201C48.9136 24.8538 49.0405 24.4698 49.1176 24.0681C49.1947 23.6663 49.219 23.2626 49.1903 22.8568C49.1531 22.4495 49.0527 22.0708 48.889 21.7209C48.7239 21.3788 48.4832 21.0835 48.167 20.835C47.8422 20.5848 47.4358 20.4129 46.9478 20.3192C46.4598 20.2256 46.0229 20.2356 45.6372 20.3495C45.2428 20.4616 44.9056 20.6461 44.6256 20.9027C44.3441 21.1672 44.1149 21.4826 43.9381 21.8489C43.7527 22.2135 43.6215 22.5967 43.5444 22.9985C43.4673 23.4003 43.4473 23.8048 43.4845 24.2122C43.5132 24.6179 43.6101 24.9918 43.7752 25.3339C43.9388 25.6838 44.1831 25.9839 44.5079 26.2341C44.8241 26.4826 45.2262 26.6537 45.7142 26.7474ZM45.4829 27.9526C44.798 27.8212 44.2085 27.5856 43.7146 27.2457C43.212 26.9042 42.8109 26.4965 42.5113 26.0224C42.2117 25.5484 42.0149 25.0246 41.9208 24.4512C41.8181 23.876 41.8242 23.2891 41.9391 22.6904C42.0556 22.0839 42.2679 21.5324 42.5762 21.0362C42.8759 20.5383 43.2526 20.1246 43.7064 19.7952C44.1602 19.4657 44.6837 19.2354 45.277 19.1042C45.8602 18.9792 46.4942 18.9825 47.1791 19.1139C47.864 19.2454 48.4585 19.4779 48.9626 19.8115C49.4565 20.1513 49.8533 20.5583 50.1529 21.0323C50.4525 21.5064 50.6536 22.0309 50.7563 22.6061C50.8504 23.1795 50.8393 23.7695 50.7229 24.3761C50.608 24.9748 50.4007 25.5231 50.1009 26.021C49.7927 26.5173 49.4116 26.9301 48.9579 27.2596C48.5041 27.5891 47.9848 27.8202 47.4001 27.953C46.8068 28.0842 46.1678 28.0841 45.4829 27.9526Z" fill="#6CA0DC"/>
<path d="M39.7328 26.6409L38.0377 26.3156L35.0442 19.2967L35.0185 19.2918L33.8257 25.5072L32.2975 25.214L33.9167 16.777L35.6118 17.1023L38.5948 24.1069L38.6333 24.1143L39.8238 17.9106L41.352 18.2039L39.7328 26.6409Z" fill="#6CA0DC"/>
<path d="M19.0275 94.3612L20.6327 94.6693L19.0135 103.106L17.4083 102.798L19.0275 94.3612Z" fill="#6CA0DC"/>
<path d="M22.5759 95.0422L24.836 95.4759L26.0982 102.567L26.1239 102.572L29.8571 96.4395L32.0916 96.8684L30.4724 105.305L28.9443 105.012L30.1938 98.5012L30.1681 98.4962L26.3759 104.519L25.0532 104.265L23.7601 97.2665L23.7344 97.2615L22.4849 103.772L20.9567 103.479L22.5759 95.0422Z" fill="#6CA0DC"/>
<path d="M33.9879 97.2323L36.2481 97.666L37.5102 104.757L37.5359 104.762L41.2691 98.6296L43.5036 99.0584L41.8845 107.495L40.3563 107.202L41.6058 100.691L41.5801 100.686L37.788 106.709L36.4653 106.455L35.1721 99.4566L35.1464 99.4516L33.8969 105.962L32.3688 105.669L33.9879 97.2323Z" fill="#6CA0DC"/>
<path d="M45.4256 99.4273L47.0308 99.7354L45.4117 108.172L43.8065 107.864L45.4256 99.4273Z" fill="#6CA0DC"/>
<path d="M55.381 110.085L54.3536 109.888L54.3001 108.849C53.7859 109.216 53.2981 109.445 52.8368 109.536C52.3755 109.627 51.8666 109.619 51.3101 109.513C50.6252 109.381 50.0308 109.149 49.5267 108.815C49.0327 108.475 48.6359 108.068 48.3363 107.594C48.0367 107.12 47.8356 106.596 47.7329 106.02C47.6388 105.447 47.65 104.857 47.7664 104.25C47.8813 103.652 48.0886 103.103 48.3883 102.605C48.6966 102.109 49.0776 101.696 49.5314 101.367C49.9852 101.037 50.5044 100.806 51.0891 100.673C51.6824 100.542 52.3215 100.542 53.0064 100.674C53.5029 100.769 53.9617 100.923 54.3827 101.134C54.8137 101.339 55.1813 101.598 55.4855 101.909C55.7911 102.213 56.0247 102.568 56.1864 102.975C56.348 103.382 56.4134 103.827 56.3826 104.311L54.8159 104.011C54.826 103.727 54.778 103.468 54.6717 103.235C54.5756 102.997 54.4341 102.786 54.2473 102.603C54.0604 102.42 53.8411 102.267 53.5894 102.146C53.3376 102.024 53.0661 101.935 52.7751 101.879C52.2871 101.785 51.8459 101.795 51.4516 101.907C51.0658 102.021 50.7321 102.21 50.4506 102.474C50.1705 102.731 49.9378 103.042 49.7525 103.406C49.5757 103.773 49.4487 104.157 49.3716 104.558C49.2945 104.96 49.2703 105.364 49.2989 105.77C49.3361 106.177 49.4366 106.556 49.6002 106.906C49.7653 107.248 50.006 107.543 50.3223 107.792C50.6471 108.042 51.0534 108.214 51.5414 108.307C51.9509 108.394 52.3238 108.417 52.6602 108.375C52.9981 108.325 53.293 108.223 53.5448 108.067C53.8067 107.905 54.0213 107.689 54.1885 107.419C54.3557 107.148 54.4776 106.837 54.5542 106.484L52.1143 106.016L52.3297 104.893L56.2336 105.643L55.381 110.085Z" fill="#6CA0DC"/>
<path d="M58.7439 101.983L63.1229 102.824C64.1331 103.017 64.8522 103.364 65.2802 103.862C65.7082 104.361 65.8534 104.969 65.7158 105.686C65.6387 106.088 65.5103 106.41 65.3305 106.653C65.1521 106.889 64.9615 107.072 64.7585 107.205C64.5571 107.33 64.3639 107.411 64.1791 107.449C64.0028 107.489 63.8739 107.513 63.7923 107.522L63.7878 107.546C63.9218 107.588 64.0597 107.655 64.2017 107.748C64.3523 107.842 64.4825 107.973 64.5922 108.141C64.7035 108.301 64.7808 108.5 64.8241 108.737C64.8759 108.975 64.8701 109.26 64.8066 109.591C64.7113 110.087 64.6629 110.548 64.6614 110.972C64.6699 111.39 64.7431 111.702 64.8811 111.909L63.1603 111.578C63.0752 111.374 63.041 111.159 63.0576 110.934C63.0829 110.71 63.1151 110.496 63.1544 110.291C63.2285 109.905 63.2663 109.569 63.2679 109.284C63.2709 108.99 63.2213 108.74 63.1191 108.532C63.0184 108.317 62.8566 108.143 62.6335 108.01C62.4189 107.879 62.1276 107.778 61.7595 107.708L59.3966 107.254L58.7299 110.728L57.1247 110.42L58.7439 101.983ZM59.6121 106.132L62.2446 106.637C62.7583 106.735 63.169 106.7 63.4767 106.53C63.7859 106.353 63.9836 106.039 64.0698 105.59C64.1212 105.323 64.12 105.098 64.0661 104.916C64.0138 104.726 63.9196 104.569 63.7836 104.445C63.6562 104.323 63.4971 104.227 63.3063 104.157C63.124 104.09 62.9301 104.036 62.7246 103.997L60.1178 103.497L59.6121 106.132Z" fill="#6CA0DC"/>
<path d="M70.2385 104.189L71.9464 104.517L73.8587 113.632L72.1379 113.301L71.7061 110.903L68.0463 110.201L66.7573 112.269L65.1007 111.951L70.2385 104.189ZM68.6983 109.162L71.4978 109.699L70.8199 105.808L70.7814 105.8L68.6983 109.162Z" fill="#6CA0DC"/>
<path d="M74.2989 104.968L81.7214 106.393L81.4765 107.669L78.5614 107.11L77.1872 114.27L75.582 113.962L76.9562 106.802L74.054 106.245L74.2989 104.968Z" fill="#6CA0DC"/>
<path d="M82.7844 106.597L84.3896 106.905L82.7704 115.342L81.1652 115.034L82.7844 106.597Z" fill="#6CA0DC"/>
<path d="M90.0696 109.036C89.5816 108.943 89.1404 108.952 88.7461 109.064C88.3603 109.178 88.0267 109.367 87.7451 109.632C87.4651 109.888 87.2324 110.199 87.047 110.564C86.8702 110.93 86.7432 111.314 86.6661 111.716C86.589 112.117 86.5648 112.521 86.5935 112.927C86.6307 113.334 86.7311 113.713 86.8947 114.063C87.0599 114.405 87.3006 114.7 87.6168 114.949C87.9416 115.199 88.348 115.371 88.836 115.464C89.3239 115.558 89.7608 115.548 90.1466 115.434C90.5409 115.322 90.8781 115.138 91.1582 114.881C91.4397 114.616 91.6689 114.301 91.8457 113.935C92.0311 113.57 92.1623 113.187 92.2394 112.785C92.3165 112.383 92.3365 111.979 92.2992 111.571C92.2706 111.166 92.1737 110.792 92.0085 110.45C91.8449 110.1 91.6007 109.8 91.2759 109.55C90.9597 109.301 90.5576 109.13 90.0696 109.036ZM90.3009 107.831C90.9858 107.962 91.5752 108.198 92.0692 108.538C92.5718 108.879 92.9728 109.287 93.2724 109.761C93.572 110.235 93.7689 110.759 93.863 111.333C93.9656 111.908 93.9595 112.495 93.8446 113.093C93.7282 113.7 93.5159 114.251 93.2076 114.747C92.9079 115.245 92.5311 115.659 92.0774 115.989C91.6236 116.318 91.1 116.548 90.5068 116.679C89.9236 116.804 89.2895 116.801 88.6046 116.67C87.9198 116.538 87.3253 116.306 86.8212 115.972C86.3272 115.632 85.9304 115.225 85.6308 114.751C85.3312 114.277 85.1301 113.753 85.0275 113.178C84.9334 112.604 84.9445 112.014 85.0609 111.408C85.1758 110.809 85.3831 110.261 85.6828 109.763C85.9911 109.266 86.3721 108.854 86.8259 108.524C87.2797 108.195 87.7989 107.963 88.3837 107.831C88.9769 107.699 89.616 107.7 90.3009 107.831Z" fill="#6CA0DC"/>
<path d="M96.0509 109.143L97.746 109.468L100.74 116.487L100.765 116.492L101.958 110.276L103.486 110.57L101.867 119.007L100.172 118.681L97.189 111.677L97.1505 111.669L95.9599 117.873L94.4318 117.58L96.0509 109.143Z" fill="#6CA0DC"/>
<path d="M29.6991 60.3733C29.3469 62.209 28.8566 66.0745 32.3462 69.1506C32.1028 69.2789 31.6859 69.5708 31.5042 69.7766C29.3835 67.8601 28.7036 65.5037 28.5858 63.4958C27.3278 65.8905 25.6977 67.4591 23.516 68.2545C23.4028 68.0468 23.0602 67.6092 22.8605 67.3958C25.2966 66.6711 26.9407 64.8865 28.0826 62.1851L28.5622 62.3647C28.5797 61.9031 28.6175 61.4783 28.6746 61.0955L26.2059 60.6218L26.376 59.7356L29.6991 60.3733ZM41.5368 64.1218L41.387 64.9024L39.1821 64.4793L38.9271 65.8086L40.8998 66.1872L40.7581 66.9256L38.7853 66.547L38.4796 68.14L40.8849 68.6016L40.7452 69.3296L35.2594 68.2768L35.3991 67.5489L37.6673 67.9841L37.973 66.3911L36.1163 66.0348L36.258 65.2963L38.1147 65.6527L38.3698 64.3234L36.2388 63.9144L36.3886 63.1338L41.5368 64.1218ZM39.8793 66.8882C40.1878 67.2756 40.5102 67.8187 40.6645 68.1546L39.9963 68.3874C39.8651 68.045 39.5554 67.4933 39.2615 67.0869L39.8793 66.8882ZM43.4989 62.8466L41.7861 71.7716L40.8682 71.5955L40.9654 71.0891L34.3402 69.8177L34.243 70.3241L33.3569 70.154L35.0697 61.229L43.4989 62.8466ZM34.4961 69.0054L41.1213 70.2768L42.4251 63.4828L35.8 62.2114L34.4961 69.0054ZM53.2505 68.1745L53.1088 68.913L50.2076 68.3562C50.9553 69.1341 52.0512 69.864 53.1325 70.3286C52.9228 70.4524 52.6194 70.7223 52.4397 70.9176C52.1563 70.7702 51.8663 70.5997 51.5847 70.4144L50.9955 73.4843L50.141 73.3203L50.1936 73.0461L45.3935 72.1249L45.3348 72.4308L44.5014 72.2709L45.0865 69.222C44.7059 69.324 44.3305 69.3996 43.9716 69.4456C43.8835 69.2208 43.689 68.8663 43.5441 68.6526C44.6884 68.5604 46.011 68.2236 47.0216 67.7448L44.1732 67.1982L44.3149 66.4597L46.2244 66.8262C46.1801 66.5442 46.0879 66.1983 45.9689 65.9349L46.6493 65.9233L46.1092 65.8305C46.1205 65.6577 46.0993 65.3692 46.0473 65.1842C47.9544 65.5065 50.2805 65.8107 51.6206 65.8382L51.98 66.5306C51.2499 66.5163 50.3359 66.4339 49.3743 66.315L49.1678 67.391L50.4338 67.634C50.6738 67.3519 50.9928 66.9154 51.1507 66.634L51.9798 67.0447C51.7332 67.3036 51.4898 67.5741 51.2777 67.7959L53.2505 68.1745ZM49.9328 63.6329L49.785 64.403L53.6673 65.1481L53.3089 67.0153L52.4544 66.8514L52.669 65.7331L45.7273 64.4009L45.5127 65.5192L44.6898 65.3613L45.0482 63.494L48.9094 64.235L49.0572 63.4648L49.9328 63.6329ZM45.515 71.4919L47.4456 71.8624L47.5893 71.1134L45.6587 70.7429L45.515 71.4919ZM45.766 70.1837L47.6966 70.5542L47.8363 69.8263L45.9057 69.4558L45.766 70.1837ZM46.7759 65.9475C46.9217 66.2709 47.0387 66.6871 47.0579 66.9861L48.3344 67.2311L48.5308 66.2078C47.9382 66.1323 47.3433 66.04 46.7759 65.9475ZM46.2467 68.8759L50.6354 69.7181C50.0597 69.2412 49.5446 68.7048 49.1632 68.1558L49.0261 68.1295L48.8094 69.2583L47.976 69.0984L48.1927 67.9696L48.1294 67.9574C47.5854 68.3124 46.9295 68.6241 46.2467 68.8759ZM48.279 72.0223L50.3151 72.4131L50.4588 71.664L48.4227 71.2733L48.279 72.0223ZM48.5301 70.7142L50.5661 71.1049L50.7058 70.377L48.6697 69.9862L48.5301 70.7142ZM62.5779 74.7445L62.428 75.5252L53.3342 73.78L53.484 72.9993L55.1825 73.3253L55.9438 69.3586L61.6512 70.4539L60.8899 74.4206L62.5779 74.7445ZM63.8937 67.6028L63.748 68.3624L60.5198 67.7429C61.2075 68.8046 62.3816 69.8394 63.5707 70.4832C63.3399 70.603 63.0344 70.8835 62.8653 71.0807C61.573 70.2913 60.321 69.0064 59.6174 67.6572L59.2307 69.6722L58.3762 69.5082L58.7608 67.5038C57.6215 68.5102 55.9947 69.2645 54.521 69.534C54.4328 69.3093 54.2615 68.9483 54.0914 68.7516C55.3972 68.5591 56.8464 67.9896 57.8823 67.2367L54.7491 66.6354L54.8949 65.8759L58.9248 66.6493L59.1637 65.4044L60.0183 65.5684L59.7794 66.8132L63.8937 67.6028ZM56.0371 73.4893L59.9826 74.2465L60.1082 73.5924L56.1626 72.8352L56.0371 73.4893ZM56.2881 72.1811L60.2337 72.9383L60.3572 72.2948L56.4116 71.5376L56.2881 72.1811ZM56.5331 70.9046L60.4787 71.6618L60.6062 70.9972L56.6606 70.24L56.5331 70.9046ZM72.0171 70.5291L71.5049 73.1981L66.863 72.3073L66.695 73.1829L71.9382 74.1892L71.3267 77.3752L70.4511 77.2071L70.526 76.8168L66.1585 75.9786L66.0734 76.4217L65.2189 76.2577L66.5207 69.4743L72.0171 70.5291ZM70.1861 67.5306L70.0242 68.3746L73.8748 69.1136L73.4395 71.3818L72.5639 71.2137L72.8433 69.7579L65.9965 68.4439L65.7171 69.8998L64.8521 69.7338L65.2874 67.4656L69.1063 68.1985L69.2683 67.3545L70.1861 67.5306ZM66.3063 75.2085L70.6738 76.0467L70.9127 74.8018L66.5452 73.9636L66.3063 75.2085ZM67.0088 71.5477L70.7856 72.2725L71.0063 71.1226L67.2295 70.3978L67.0088 71.5477ZM78.049 73.5243L77.8627 74.4948L74.4763 73.8449L74.6625 72.8744L78.049 73.5243ZM87.9001 71.6083L86.2622 80.143L85.3338 79.9648L85.4513 79.3529L80.5351 78.4095L80.4076 79.0741L79.5108 78.902L81.1589 70.3146L87.9001 71.6083ZM80.7032 77.5339L85.6193 78.4773L86.1376 75.7766L81.2215 74.8331L80.7032 77.5339ZM81.3895 73.9575L86.3056 74.901L86.8037 72.3058L81.8875 71.3623L81.3895 73.9575ZM98.7883 75.1745L98.6183 76.0607L95.158 75.3966C95.679 77.2413 96.8046 79.0707 98.2161 80.151C97.9728 80.2793 97.598 80.5793 97.4037 80.7935C96.0835 79.6651 95.0587 77.9371 94.4827 76.0655L93.93 78.9456L95.7973 79.3039L95.6272 80.1901L93.7599 79.8318L93.4056 81.6779L92.4878 81.5018L92.8421 79.6556L90.9221 79.2871L91.0921 78.401L93.0122 78.7694L93.5649 75.8894C92.3128 77.4265 90.7137 78.6346 89.1076 79.2233C89.0024 78.9734 88.7804 78.5917 88.6123 78.3845C90.2791 77.8785 92.0047 76.5525 93.1746 75.016L89.7565 74.36L89.9266 73.4739L93.8827 74.2331L94.2836 72.1442L95.2014 72.3204L94.8006 74.4092L98.7883 75.1745ZM107.04 76.6924L106.89 77.4731L104.685 77.05L104.43 78.3792L106.403 78.7578L106.261 79.4963L104.288 79.1177L103.983 80.7107L106.388 81.1723L106.248 81.9002L100.762 80.8474L100.902 80.1195L103.17 80.5548L103.476 78.9618L101.619 78.6055L101.761 77.867L103.618 78.2233L103.873 76.8941L101.742 76.4851L101.892 75.7044L107.04 76.6924ZM105.382 79.4589C105.691 79.8462 106.013 80.3894 106.167 80.7253L105.499 80.958C105.368 80.6156 105.058 80.064 104.764 79.6575L105.382 79.4589ZM109.002 75.4173L107.289 84.3423L106.371 84.1662L106.468 83.6598L99.8432 82.3883L99.746 82.8947L98.8598 82.7247L100.573 73.7996L109.002 75.4173ZM99.999 81.576L106.624 82.8475L107.928 76.0535L101.303 74.782L99.999 81.576Z" fill="#6CA0DC"/>
<path d="M36.7628 49.6989L40.5583 50.4273C41.2593 50.5618 41.8465 50.781 42.32 51.0848C42.7935 51.3886 43.1582 51.7515 43.414 52.1733C43.6713 52.5877 43.8311 53.0481 43.8935 53.5545C43.9644 54.0625 43.9478 54.5879 43.8436 55.1307C43.7394 55.6736 43.5603 56.1678 43.3064 56.6135C43.061 57.0608 42.7414 57.433 42.3476 57.7301C41.9552 58.0199 41.4828 58.2183 40.9305 58.3252C40.3782 58.4322 39.7515 58.4184 39.0506 58.2839L35.2551 57.5555L36.7628 49.6989ZM37.0733 56.7407L38.6505 57.0434C39.2745 57.1632 39.7965 57.1911 40.2165 57.1272C40.6464 57.0576 40.9965 56.9194 41.2666 56.7126C41.5467 56.5002 41.7575 56.2326 41.8992 55.9099C42.0509 55.5815 42.1647 55.2193 42.2408 54.8231C42.3168 54.427 42.3444 54.052 42.3237 53.6982C42.3129 53.3386 42.2161 53.012 42.0331 52.7183C41.8601 52.4189 41.5861 52.1609 41.2111 51.9444C40.846 51.7223 40.3515 51.5513 39.7275 51.4315L38.1503 51.1289L37.0733 56.7407Z" fill="#6CA0DC"/>
<path d="M46.0167 51.4748L52.6075 52.7396L52.3794 53.928L47.3914 52.9708L46.9965 55.0285L51.6127 55.9143L51.3973 57.0367L46.7811 56.1508L46.3398 58.4506L51.4175 59.4251L51.1895 60.6135L44.5089 59.3314L46.0167 51.4748Z" fill="#6CA0DC"/>
<path d="M54.0934 53.0248L58.1325 53.7999C58.7822 53.9246 59.2967 54.107 59.6761 54.3472C60.0554 54.5873 60.333 54.8497 60.5088 55.1345C60.6846 55.4192 60.7835 55.712 60.8055 56.0128C60.8361 56.3153 60.8282 56.5876 60.7817 56.8297C60.7353 57.0718 60.6418 57.3277 60.5014 57.5974C60.371 57.8614 60.1714 58.0931 59.9027 58.2925C59.634 58.4919 59.279 58.633 58.8377 58.7156C58.3978 58.7909 57.853 58.7662 57.2034 58.6416L54.7671 58.174L54.1885 61.189L52.5856 60.8814L54.0934 53.0248ZM54.9825 57.0516L57.329 57.502C57.5085 57.5364 57.6965 57.5497 57.893 57.5417C58.0896 57.5338 58.2739 57.4969 58.4461 57.4311C58.6282 57.3596 58.7818 57.2521 58.9068 57.1088C59.0417 56.9598 59.1331 56.7605 59.181 56.5111C59.2303 56.2544 59.2284 56.0334 59.1753 55.8483C59.1222 55.6632 59.0321 55.509 58.9051 55.3857C58.7795 55.2551 58.6261 55.1535 58.4451 55.0807C58.2641 55.0079 58.0667 54.951 57.853 54.91L55.4808 54.4548L54.9825 57.0516Z" fill="#6CA0DC"/>
<path d="M64.1434 54.9535L65.8488 55.2808L67.8673 63.8141L66.149 63.4844L65.689 61.2398L62.0346 60.5385L60.7764 62.4533L59.1223 62.1359L64.1434 54.9535ZM62.6712 59.5768L65.4665 60.1132L64.7428 56.4718L64.7043 56.4644L62.6712 59.5768Z" fill="#6CA0DC"/>
<path d="M70.2469 56.1248L74.6194 56.9639C75.6281 57.1575 76.3487 57.4898 76.7813 57.9607C77.2138 58.4316 77.3661 59.0008 77.2379 59.6684C77.1662 60.0425 77.0422 60.342 76.8661 60.5668C76.6914 60.7843 76.5038 60.9536 76.3033 61.0749C76.1042 61.1888 75.9128 61.2623 75.7291 61.2955C75.5541 61.3304 75.4259 61.3514 75.3448 61.3587L75.3405 61.3807C75.4745 61.4216 75.6128 61.4862 75.7554 61.5744C75.9066 61.6642 76.0379 61.7883 76.1493 61.9466C76.2621 62.0976 76.3416 62.2839 76.3876 62.5058C76.4423 62.7292 76.44 62.995 76.3809 63.3031C76.2922 63.7652 76.2497 64.1944 76.2534 64.5906C76.2671 64.9812 76.344 65.2735 76.484 65.4677L74.7657 65.138C74.6784 64.9463 74.6417 64.7453 74.6554 64.535C74.6778 64.3263 74.7072 64.1266 74.7438 63.9359C74.8128 63.5764 74.8463 63.2634 74.8443 62.9968C74.8437 62.7228 74.7912 62.4884 74.6868 62.2934C74.5838 62.0911 74.4204 61.9267 74.1965 61.8C73.9812 61.675 73.6897 61.5773 73.3221 61.5067L70.9628 61.0539L70.3419 64.289L68.7391 63.9814L70.2469 56.1248ZM71.1634 60.0086L73.792 60.5131C74.3049 60.6115 74.7136 60.5834 75.018 60.4289C75.3238 60.267 75.5169 59.977 75.5971 59.5588C75.645 59.3094 75.6409 59.0995 75.585 58.929C75.5305 58.7512 75.4348 58.6036 75.2978 58.486C75.1694 58.3701 75.0097 58.2786 74.8187 58.2115C74.6362 58.1461 74.4424 58.0937 74.2373 58.0543L71.6343 57.5548L71.1634 60.0086Z" fill="#6CA0DC"/>
<path d="M78.178 57.6468L85.5894 59.0692L85.3614 60.2576L82.4506 59.699L81.1709 66.3672L79.5681 66.0596L80.8478 59.3914L77.9499 58.8352L78.178 57.6468Z" fill="#6CA0DC"/>
<path d="M86.6508 59.2729L93.2416 60.5377L93.0135 61.7261L88.0255 60.7689L87.6307 62.8266L92.2468 63.7124L92.0314 64.8348L87.4153 63.9489L86.9739 66.2487L92.0517 67.2232L91.8236 68.4116L85.143 67.1295L86.6508 59.2729Z" fill="#6CA0DC"/>
<path d="M94.7275 60.8229L98.523 61.5513C99.224 61.6858 99.8112 61.905 100.285 62.2088C100.758 62.5126 101.123 62.8754 101.379 63.2972C101.636 63.7117 101.796 64.1721 101.858 64.6785C101.929 65.1865 101.912 65.7119 101.808 66.2547C101.704 66.7976 101.525 67.2918 101.271 67.7375C101.026 68.1848 100.706 68.557 100.312 68.8541C99.9199 69.1439 99.4475 69.3423 98.8952 69.4492C98.3429 69.5562 97.7162 69.5424 97.0152 69.4079L93.2198 68.6795L94.7275 60.8229ZM95.038 67.8647L96.6152 68.1674C97.2392 68.2872 97.7612 68.3151 98.1812 68.2512C98.6111 68.1816 98.9611 68.0434 99.2313 67.8366C99.5113 67.6241 99.7222 67.3566 99.8639 67.0339C100.016 66.7055 100.129 66.3433 100.205 65.9471C100.281 65.551 100.309 65.176 100.288 64.8222C100.278 64.4626 100.181 64.136 99.9978 63.8423C99.8248 63.5429 99.5508 63.2849 99.1758 63.0684C98.8107 62.8463 98.3162 62.6753 97.6921 62.5555L96.1149 62.2528L95.038 67.8647Z" fill="#6CA0DC"/>
<path d="M34.5246 73.5647L39.3662 74.4939L39.1627 75.5545L35.5486 74.861L35.1962 76.6975L38.3683 77.3062L38.176 78.3079L35.0039 77.6992L34.4065 80.8124L33.1789 80.5768L34.5246 73.5647ZM39.8747 74.5915L41.1023 74.8271L40.3182 78.9125C40.273 79.1482 40.237 79.3891 40.2101 79.6351C40.1898 79.8824 40.2132 80.1142 40.2802 80.3308C40.3551 80.542 40.4886 80.7305 40.6808 80.8964C40.8796 81.0635 41.1786 81.1854 41.578 81.262C41.9774 81.3387 42.297 81.3355 42.5369 81.2526C42.7834 81.1709 42.9773 81.0452 43.1185 80.8754C43.2675 80.7004 43.375 80.4936 43.4411 80.2551C43.5138 80.0179 43.5728 79.7815 43.618 79.5458L44.402 75.4603L45.6296 75.6959L44.7683 80.184C44.6816 80.6358 44.5375 81.0154 44.3359 81.3229C44.1344 81.6304 43.8839 81.8743 43.5846 82.0544C43.2931 82.2293 42.9599 82.3384 42.585 82.3819C42.2101 82.4254 41.8066 82.4056 41.3744 82.3227C40.9423 82.2398 40.5602 82.1087 40.228 81.9296C39.8958 81.7504 39.6234 81.525 39.4108 81.2534C39.206 80.9765 39.0668 80.6579 38.9934 80.2976C38.92 79.9374 38.9267 79.5313 39.0134 79.0796L39.8747 74.5915ZM46.6479 75.8913L47.8755 76.1269L47.2629 79.3187L50.9985 76.7262L52.5109 77.0165L49.1748 79.2783L51.3616 84.0662L49.8296 83.7722L48.1742 79.9823L46.9821 80.782L46.5298 83.1389L45.3022 82.9034L46.6479 75.8913ZM52.8995 77.0911L54.1271 77.3267L53.343 81.4121C53.2978 81.6478 53.2618 81.8887 53.2349 82.1347C53.2146 82.3819 53.238 82.6138 53.3051 82.8304C53.3799 83.0416 53.5135 83.2301 53.7056 83.396C53.9044 83.5631 54.2034 83.685 54.6028 83.7616C55.0022 83.8383 55.3218 83.8351 55.5618 83.7522C55.8082 83.6705 56.0021 83.5448 56.1433 83.375C56.2923 83.2 56.3998 82.9932 56.466 82.7547C56.5386 82.5175 56.5976 82.2811 56.6428 82.0454L57.4269 77.9599L58.6545 78.1955L57.7932 82.6836C57.7065 83.1354 57.5623 83.515 57.3608 83.8225C57.1592 84.13 56.9087 84.3739 56.6094 84.554C56.3179 84.7289 55.9847 84.838 55.6098 84.8815C55.2349 84.9249 54.8314 84.9052 54.3993 84.8223C53.9671 84.7394 53.585 84.6083 53.2528 84.4292C52.9206 84.25 52.6482 84.0246 52.4356 83.753C52.2308 83.4761 52.0917 83.1575 52.0182 82.7972C51.9448 82.4369 51.9515 82.0309 52.0382 81.5792L52.8995 77.0911ZM62.498 79.7986C62.1248 79.727 61.7863 79.7401 61.4824 79.8379C61.1851 79.937 60.9268 80.0979 60.7076 80.3205C60.4896 80.5367 60.3073 80.797 60.1606 81.1014C60.0204 81.4072 59.9183 81.727 59.8543 82.0609C59.7902 82.3948 59.7666 82.7297 59.7836 83.0656C59.8072 83.4027 59.8796 83.7153 60.0008 84.0033C60.1233 84.2848 60.3043 84.5266 60.5438 84.7287C60.7899 84.932 61.0995 85.0695 61.4727 85.1411C61.8459 85.2128 62.1812 85.199 62.4785 85.1C62.7824 85.0021 63.0433 84.8452 63.2613 84.629C63.4805 84.4064 63.6602 84.1422 63.8003 83.8364C63.947 83.532 64.0524 83.2128 64.1165 82.8789C64.1806 82.545 64.2008 82.2094 64.1773 81.8723C64.1603 81.5364 64.0905 81.2277 63.9681 80.9463C63.8468 80.6582 63.6632 80.4126 63.4171 80.2092C63.1776 80.0071 62.8712 79.8702 62.498 79.7986ZM62.6902 78.7969C63.214 78.8974 63.6633 79.0855 64.0381 79.361C64.4194 79.6379 64.7221 79.9709 64.9461 80.3601C65.1701 80.7493 65.3146 81.1809 65.3798 81.655C65.4515 82.1304 65.4396 82.6169 65.3441 83.1144C65.2473 83.6186 65.0777 84.0782 64.8351 84.4932C64.5991 84.9095 64.305 85.257 63.9528 85.5356C63.6007 85.8143 63.1962 86.0116 62.7395 86.1276C62.2906 86.2383 61.8043 86.2434 61.2805 86.1429C60.7567 86.0423 60.3035 85.8569 59.9209 85.5867C59.5462 85.3111 59.2468 84.9787 59.0228 84.5895C58.7988 84.2003 58.6509 83.768 58.5792 83.2927C58.5141 82.8186 58.5299 82.3294 58.6267 81.8253C58.7221 81.3277 58.8879 80.8708 59.1239 80.4545C59.3665 80.0394 59.6639 79.6926 60.016 79.414C60.3682 79.1353 60.7693 78.9374 61.2195 78.8201C61.6762 78.7041 62.1665 78.6964 62.6902 78.7969ZM66.7414 79.7475L67.9689 79.983L67.3564 83.1748L71.092 80.5824L72.6044 80.8726L69.2683 83.1344L71.4551 87.9224L69.9231 87.6283L68.2677 83.8384L67.0756 84.6381L66.6233 86.9951L65.3957 86.7595L66.7414 79.7475ZM74.9473 81.3223L76.2535 81.5729L77.6085 89.1033L76.2925 88.8507L75.9907 86.8683L73.1918 86.3312L72.1776 88.061L70.9107 87.8179L74.9473 81.3223ZM73.7048 85.4623L75.8457 85.8731L75.3735 82.6565L75.344 82.6508L73.7048 85.4623ZM83.4454 82.9531L84.7515 83.2038L86.1066 90.7341L84.7906 90.4816L84.4888 88.4992L81.6899 87.962L80.6757 89.6919L79.4088 89.4488L83.4454 82.9531ZM82.2028 87.0931L84.3438 87.504L83.8715 84.2873L83.8421 84.2817L82.2028 87.0931ZM86.5672 89.4479L87.9323 89.7099L87.6778 91.0357L86.3127 90.7737L86.5672 89.4479ZM90.0676 84.224L93.1612 84.8177C93.6588 84.9132 94.0509 85.0631 94.3375 85.2674C94.6241 85.4718 94.8318 85.6983 94.9606 85.9471C95.0893 86.1958 95.1587 86.4535 95.1686 86.7201C95.1851 86.988 95.1726 87.23 95.1311 87.4461C95.0897 87.6621 95.0117 87.8915 94.8972 88.1343C94.7905 88.3718 94.6314 88.5822 94.4197 88.7656C94.208 88.949 93.9312 89.0826 93.5893 89.1663C93.2486 89.2435 92.8295 89.2343 92.3319 89.1388L90.466 88.7807L89.9496 91.4716L88.722 91.236L90.0676 84.224ZM90.6582 87.779L92.4554 88.1239C92.5929 88.1503 92.7374 88.1577 92.889 88.146C93.0406 88.1344 93.1835 88.0973 93.3177 88.0348C93.4596 87.967 93.5805 87.868 93.6801 87.7378C93.7876 87.6023 93.8627 87.4233 93.9054 87.2006C93.9494 86.9715 93.9531 86.7753 93.9165 86.6122C93.8799 86.449 93.8142 86.3142 93.7192 86.2078C93.6255 86.0947 93.5098 86.008 93.372 85.9477C93.2342 85.8873 93.0835 85.8414 92.9198 85.81L91.103 85.4613L90.6582 87.779ZM93.406 90.7603L94.7711 91.0223L94.5167 92.3481L93.1516 92.0861L93.406 90.7603Z" fill="#6CA0DC"/>
<path d="M32.1811 86.9774L32.306 86.3263C32.4261 85.7007 32.633 85.1051 32.9869 84.7097C33.3408 84.3143 33.8567 84.1088 34.61 84.2534C35.3122 84.3881 35.7331 84.7469 35.9356 85.2094C36.1356 85.6846 36.125 86.2915 36.0001 86.9426C35.8163 87.9001 35.2408 88.9678 34.5906 89.9417C33.9251 90.9259 33.2052 91.7805 32.7325 92.312L34.9157 92.7309L34.6535 94.097L30.9128 93.3791L31.175 92.0131C31.7212 91.4428 32.2316 90.8524 32.7038 90.2547C33.1052 89.7493 33.5086 89.1648 33.8506 88.5554C34.1926 87.9459 34.4811 87.3394 34.6041 86.7673C34.6531 86.512 34.6967 86.2159 34.6745 85.9866C34.6523 85.7573 34.5693 85.5693 34.365 85.5301C34.1735 85.4933 34.0316 85.6117 33.9286 85.8037C33.8231 86.0085 33.7437 86.2845 33.6849 86.5909L33.5599 87.242L32.1811 86.9774ZM39.5248 92.9536C39.5077 93.043 39.4459 93.2959 39.3233 93.59C39.1982 93.897 38.9764 94.225 38.6544 94.4545C38.3323 94.6839 37.8821 94.8225 37.2821 94.7074C36.682 94.5922 36.3152 94.2968 36.101 93.9644C35.8867 93.6321 35.8021 93.2452 35.7996 92.9138C35.7945 92.5951 35.8308 92.3373 35.8479 92.248L36.0586 91.15C36.1934 90.4478 36.5707 89.7922 37.1288 89.436C36.7884 88.9338 36.6963 88.2411 36.8213 87.5899L36.9732 86.7984C36.9952 86.6835 37.106 86.1753 37.4265 85.747C37.7469 85.3187 38.254 84.9527 39.1221 85.1193C39.9903 85.2859 40.3386 85.8161 40.4778 86.3326C40.6169 86.849 40.5189 87.3597 40.4969 87.4746L40.345 88.2662C40.22 88.9173 39.878 89.5268 39.3758 89.8672C39.7625 90.4047 39.8703 91.1535 39.7355 91.8556L39.5248 92.9536ZM39.0505 87.7001C39.1338 87.266 39.1695 86.9419 39.1728 86.7175C39.1634 86.4907 39.0681 86.3665 38.8894 86.3322C38.7362 86.3028 38.6169 86.3726 38.5291 86.5543C38.3431 86.9024 38.0878 88.1639 38.1042 88.6304C38.0984 88.8675 38.1912 89.0045 38.37 89.0388C38.5487 89.0731 38.6856 88.9802 38.7808 88.7602C38.8608 88.5505 38.9549 88.198 39.0505 87.7001ZM38.2896 92.1474C38.3974 91.5856 38.4528 91.1594 38.4659 90.8839C38.4663 90.606 38.3528 90.4386 38.1102 90.3921C37.8677 90.3455 37.7003 90.459 37.6105 90.7198C37.403 91.2492 37.1536 92.6177 37.2029 93.0507C37.2251 93.28 37.3332 93.4067 37.5247 93.4434C37.7672 93.49 37.9322 93.3893 38.0298 93.1565C38.1146 92.9213 38.2063 92.5814 38.2896 92.1474ZM40.074 93.6679L41.4145 93.9252L41.1426 95.3423L39.802 95.0851L40.074 93.6679ZM51.6461 96.0476C51.9069 96.1373 52.1234 96.1127 52.3158 95.9378C52.4096 95.8632 52.4773 95.7173 52.5189 95.5003L53.9449 88.0698L55.3237 88.3345L53.8561 95.9819C53.7581 96.4926 53.5398 96.9405 53.1545 97.2239C52.7691 97.5074 52.1937 97.6087 51.3864 97.4009L51.6461 96.0476ZM59.9458 89.2215L58.5149 96.6774C58.4287 97.058 58.2859 97.388 58.0891 97.6547C57.9252 97.888 57.6999 98.0962 57.4078 98.2387C57.1133 98.394 56.7465 98.4428 56.2869 98.3546C55.8273 98.2664 55.4919 98.0829 55.2757 97.8296C55.0571 97.5891 54.9377 97.3146 54.8718 97.0373C54.7877 96.7167 54.7773 96.3573 54.838 95.9718L56.2689 88.5158L57.6477 88.7805L56.2169 96.2364C56.1654 96.5045 56.1949 96.6955 56.2957 96.8604C56.3473 96.9365 56.4293 96.992 56.5442 97.014C56.7867 97.0606 56.9311 96.9294 57.0189 96.7477C57.0743 96.6657 57.1091 96.5532 57.1361 96.4128L58.567 88.9569L59.9458 89.2215ZM60.9571 89.4156L62.3359 89.6802L60.7801 97.7872L62.6058 98.1376L62.3608 99.4143L59.1563 98.7993L60.9571 89.4156ZM63.0148 98.0705L64.3553 98.3277L64.0833 99.7449L62.7428 99.4876L63.0148 98.0705ZM75.8807 95.3638L76.0056 94.7127C76.1257 94.0871 76.3327 93.4914 76.6865 93.0961C77.0404 92.7007 77.5564 92.4952 78.3096 92.6398C79.0118 92.7745 79.4327 93.1333 79.6352 93.5957C79.8352 94.071 79.8247 94.6778 79.6997 95.329C79.5159 96.2865 78.9404 97.3542 78.2902 98.3281C77.6248 99.3123 76.9048 100.167 76.4322 100.698L78.6153 101.117L78.3532 102.483L74.6124 101.766L74.8746 100.399C75.4209 99.8292 75.9313 99.2388 76.4034 98.6411C76.8048 98.1357 77.2082 97.5512 77.5502 96.9418C77.8922 96.3323 78.1807 95.7258 78.3037 95.1537C78.3527 94.8984 78.3963 94.6023 78.3741 94.373C78.3519 94.1437 78.2689 93.9557 78.0646 93.9165C77.8731 93.8797 77.7313 93.9981 77.6282 94.1901C77.5227 94.3949 77.4433 94.6709 77.3845 94.9773L77.2595 95.6284L75.8807 95.3638ZM83.2991 101.434C83.2128 101.814 83.0701 102.144 82.8733 102.411C82.7094 102.644 82.4841 102.853 82.192 102.995C81.8975 103.15 81.5307 103.199 81.0711 103.111C80.6115 103.023 80.2761 102.839 80.0599 102.586C79.8413 102.345 79.7219 102.071 79.656 101.794C79.5719 101.473 79.5615 101.114 79.6222 100.728L80.6831 95.2C80.7669 94.8322 80.9097 94.5022 81.1065 94.2355C81.2704 94.0022 81.4854 93.7787 81.7775 93.6362C82.0695 93.4937 82.4515 93.4347 82.9111 93.5229C83.3708 93.6111 83.691 93.8049 83.9095 94.0454C84.1281 94.2859 84.2579 94.5755 84.3238 94.8529C84.4079 95.1735 84.4183 95.5329 84.36 95.9056L83.2991 101.434ZM82.9812 95.641C83.0302 95.3857 83.0134 95.1971 82.9151 95.0194C82.8636 94.9433 82.7688 94.8854 82.6539 94.8634C82.4113 94.8168 82.2621 94.9735 82.1792 95.1297C82.1213 95.2245 82.0865 95.3369 82.062 95.4646L81.0011 100.993C80.9496 101.261 80.9791 101.452 81.0799 101.617C81.1314 101.693 81.2135 101.748 81.3284 101.77C81.5709 101.817 81.7152 101.686 81.8031 101.504C81.8585 101.422 81.8933 101.31 81.9203 101.169L82.9812 95.641ZM84.9572 97.1057L85.0822 96.4546C85.2023 95.829 85.4092 95.2333 85.7631 94.8379C86.117 94.4425 86.6329 94.2371 87.3862 94.3817C88.0884 94.5164 88.5093 94.8752 88.7118 95.3376C88.9118 95.8128 88.9012 96.4197 88.7763 97.0708C88.5925 98.0284 88.017 99.096 87.3668 100.07C86.7013 101.054 85.9814 101.909 85.5087 102.44L87.6919 102.859L87.4297 104.225L83.689 103.507L83.9512 102.141C84.4974 101.571 85.0078 100.981 85.48 100.383C85.8814 99.8775 86.2848 99.2931 86.6268 98.6836C86.9688 98.0742 87.2572 97.4677 87.3803 96.8956C87.4293 96.6403 87.4729 96.3442 87.4507 96.1149C87.4285 95.8856 87.3454 95.6976 87.1412 95.6584C86.9497 95.6216 86.8078 95.74 86.7048 95.932C86.5993 96.1368 86.5198 96.4128 86.461 96.7192L86.3361 97.3703L84.9572 97.1057ZM90.5848 102.713L88.4527 102.304L88.6855 101.091L91.8787 95.3497L93.2576 95.6143L92.0815 101.743L92.7199 101.865L92.4871 103.078L91.8487 102.955L91.4567 104.998L90.1928 104.756L90.5848 102.713ZM89.86 101.316L90.8176 101.5L91.435 98.2827L91.3584 98.268L91.2279 98.5341L89.86 101.316Z" fill="#6CA0DC"/>
<path d="M55.1111 34.1757L54.1069 39.4083L57.4368 40.0473L58.1936 36.1037L59.5286 36.3599L58.5391 41.5158L53.8743 40.6206L52.929 45.5463L56.8726 46.3031L57.6412 42.2981L58.9455 42.5484L57.7676 48.6864L56.4633 48.4361L56.6341 47.5461L47.6266 45.8174L47.4528 46.7228L46.1792 46.4784L47.3601 40.325L48.6337 40.5695L47.8651 44.5745L51.6093 45.293L52.5546 40.3673L48.1045 39.5133L49.094 34.3574L50.3676 34.6018L49.6108 38.5455L52.7872 39.155L53.7914 33.9224L55.1111 34.1757ZM96.9769 45.1694L96.759 46.3049L93.5519 45.6895L93.1808 47.6229L96.0503 48.1736L95.8442 49.2478L92.9747 48.6971L92.53 51.0142L96.0286 51.6856L95.8255 52.7444L87.8461 51.2131L88.0493 50.1543L91.3484 50.7874L91.7931 48.4703L89.0924 47.952L89.2985 46.8779L91.9992 47.3962L92.3703 45.4627L89.2706 44.8678L89.4885 43.7323L96.9769 45.1694ZM94.5659 49.1934C95.0146 49.7568 95.4835 50.5468 95.7079 51.0354L94.7361 51.3739C94.5453 50.8759 94.0947 50.0735 93.6672 49.4823L94.5659 49.1934ZM99.8307 43.3147L97.3394 56.2965L96.0044 56.0403L96.1457 55.3037L86.5091 53.4544L86.3677 54.1909L85.0787 53.9436L87.5701 40.9617L99.8307 43.3147ZM86.7358 52.2728L96.3725 54.1222L98.2689 44.24L88.6323 42.3906L86.7358 52.2728Z" fill="#6CA0DC"/>
</svg>
