<svg width="17" height="18" viewBox="0 0 17 18" fill="none" xmlns="http://www.w3.org/2000/svg">
<path d="M3.46143 16.2202L1.0459 17.125C0.84115 17.2024 0.650232 17.1582 0.473148 16.9922C0.296065 16.8261 0.249027 16.6269 0.332035 16.3945L1.22852 13.9873L11.7871 3.41208L14.02 5.64499L3.46143 16.2202ZM15.1074 4.55759L12.8745 2.32468L14.0366 1.17087C14.3133 0.899711 14.6094 0.755831 14.9248 0.73923C15.2458 0.722628 15.5391 0.849907 15.8047 1.12107L16.3193 1.64401C16.585 1.90964 16.7122 2.20017 16.7012 2.5156C16.6956 2.82549 16.5545 3.11879 16.2778 3.39548L15.1074 4.55759Z" fill="white"/>
</svg>
