<svg width="25" height="29" viewBox="0 0 25 29" fill="none" xmlns="http://www.w3.org/2000/svg">
<path d="M0.101562 23.8438V6.25391C0.101562 5.07422 0.402344 4.1875 1.00391 3.59375C1.60547 2.99219 2.49609 2.64453 3.67578 2.55078C4.87891 2.46484 6.125 2.33594 7.41406 2.16406C8.70312 1.98438 9.96094 1.78125 11.1875 1.55469C12.4219 1.32031 13.5469 1.07812 14.5625 0.828125C15.9375 0.492187 17.0547 0.625 17.9141 1.22656C18.7812 1.82031 19.2148 2.85156 19.2148 4.32031V21.3242C19.2148 22.4258 19.0195 23.3359 18.6289 24.0547C18.2383 24.7812 17.5 25.3125 16.4141 25.6484C15.3203 25.9922 14.0938 26.3047 12.7344 26.5859C11.3828 26.875 9.99219 27.1172 8.5625 27.3125C7.13281 27.5078 5.76172 27.6445 4.44922 27.7227C3.05078 27.8164 1.97656 27.5039 1.22656 26.7852C0.476562 26.0664 0.101562 25.0859 0.101562 23.8438ZM3.71094 23.2812C3.71094 23.5781 3.79297 23.793 3.95703 23.9258C4.12109 24.0664 4.33203 24.1289 4.58984 24.1133C5.79297 24.0352 7.02734 23.9102 8.29297 23.7383C9.55859 23.5742 10.7656 23.3711 11.9141 23.1289C13.0703 22.8945 14.0781 22.6367 14.9375 22.3555C15.2344 22.2695 15.418 22.1328 15.4883 21.9453C15.5586 21.7578 15.5938 21.5234 15.5938 21.2422V5.11719C15.5938 4.85156 15.5156 4.65625 15.3594 4.53125C15.2109 4.39844 15.0156 4.36328 14.7734 4.42578C13.7031 4.69141 12.5586 4.9375 11.3398 5.16406C10.1211 5.39062 8.91406 5.58594 7.71875 5.75C6.53125 5.90625 5.44531 6.01563 4.46094 6.07812C4.24219 6.09375 4.0625 6.16406 3.92188 6.28906C3.78125 6.40625 3.71094 6.55859 3.71094 6.74609V23.2812ZM6.16016 10.4023C5.91016 10.418 5.70703 10.3438 5.55078 10.1797C5.39453 10.0156 5.31641 9.82031 5.31641 9.59375C5.31641 9.39062 5.37891 9.20703 5.50391 9.04297C5.63672 8.87891 5.84375 8.78125 6.125 8.75C7.5 8.64844 8.73828 8.49609 9.83984 8.29297C10.9492 8.08984 12.0039 7.87109 13.0039 7.63672C13.3242 7.57422 13.5703 7.62891 13.7422 7.80078C13.9141 7.96484 14 8.15625 14 8.375C14 8.55469 13.9492 8.72656 13.8477 8.89062C13.7461 9.05469 13.5391 9.17578 13.2266 9.25391C12.1562 9.50391 11.0547 9.73047 9.92188 9.93359C8.79688 10.1289 7.54297 10.2852 6.16016 10.4023ZM6.16016 13.4375C5.91016 13.4453 5.70703 13.3711 5.55078 13.2148C5.39453 13.0586 5.31641 12.8594 5.31641 12.6172C5.31641 12.4141 5.37891 12.2305 5.50391 12.0664C5.63672 11.8945 5.84375 11.8008 6.125 11.7852C7.5 11.6758 8.73828 11.5234 9.83984 11.3281C10.9492 11.125 12.0039 10.9062 13.0039 10.6719C13.3242 10.6094 13.5703 10.6602 13.7422 10.8242C13.9141 10.9883 14 11.1797 14 11.3984C14 11.5859 13.9492 11.7617 13.8477 11.9258C13.7461 12.0898 13.5391 12.2109 13.2266 12.2891C12.1562 12.5391 11.0547 12.7617 9.92188 12.957C8.79688 13.1523 7.54297 13.3125 6.16016 13.4375ZM6.16016 16.4609C5.91016 16.4766 5.70703 16.4023 5.55078 16.2383C5.39453 16.0742 5.31641 15.8789 5.31641 15.6523C5.31641 15.4414 5.37891 15.2578 5.50391 15.1016C5.63672 14.9375 5.84375 14.8398 6.125 14.8086C7.5 14.6914 8.73828 14.5352 9.83984 14.3398C10.9492 14.1445 12.0039 13.9297 13.0039 13.6953C13.3242 13.625 13.5703 13.6758 13.7422 13.8477C13.9141 14.0117 14 14.207 14 14.4336C14 14.6133 13.9492 14.7852 13.8477 14.9492C13.7461 15.1133 13.5391 15.2344 13.2266 15.3125C12.1562 15.5547 11.0547 15.7773 9.92188 15.9805C8.79688 16.1836 7.54297 16.3438 6.16016 16.4609ZM6.16016 19.4727C5.91016 19.4805 5.70703 19.4062 5.55078 19.25C5.39453 19.0938 5.31641 18.9023 5.31641 18.6758C5.31641 18.457 5.37891 18.2656 5.50391 18.1016C5.63672 17.9375 5.84375 17.8477 6.125 17.832C6.92969 17.7773 7.60156 17.7148 8.14062 17.6445C8.67969 17.5664 9.15625 17.4922 9.57031 17.4219C9.90625 17.3594 10.1562 17.4141 10.3203 17.5859C10.4922 17.7578 10.5781 17.9531 10.5781 18.1719C10.5781 18.3594 10.5195 18.5391 10.4023 18.7109C10.2852 18.875 10.1055 18.9766 9.86328 19.0156C9.38672 19.1094 8.85547 19.1953 8.26953 19.2734C7.69141 19.3516 6.98828 19.418 6.16016 19.4727ZM11.1992 28.8477C12.2539 28.6602 13.2734 28.4531 14.2578 28.2266C15.2422 28 16.1523 27.7539 16.9883 27.4883C17.8008 27.2383 18.5273 26.8945 19.168 26.457C19.8164 26.0273 20.3281 25.4102 20.7031 24.6055C21.0781 23.8008 21.2656 22.707 21.2656 21.3242V4.69531C21.2656 4.40625 21.2461 4.11328 21.207 3.81641C21.1758 3.51172 21.1289 3.10938 21.0664 2.60938C22.3242 2.77344 23.2773 3.25 23.9258 4.03906C24.5742 4.82031 24.8984 5.88281 24.8984 7.22656V24.3008C24.8984 25.793 24.5156 26.9219 23.75 27.6875C22.9844 28.4609 21.8711 28.8477 20.4102 28.8477H11.1992Z" fill="#F9C55F"/>
</svg>
