<svg width="16" height="20" viewBox="0 0 16 20" fill="none" xmlns="http://www.w3.org/2000/svg">
<path d="M3.18555 19.9053C2.23926 19.9053 1.51432 19.6562 1.01074 19.1582C0.507161 18.6602 0.255371 17.938 0.255371 16.9917V9.02295C0.255371 8.08219 0.507161 7.36279 1.01074 6.86475C1.51432 6.36117 2.23926 6.10938 3.18555 6.10938H5.36865V8.25098H3.41797C3.08594 8.25098 2.83138 8.33675 2.6543 8.5083C2.48275 8.67432 2.39697 8.93441 2.39697 9.28857V16.7344C2.39697 17.083 2.48275 17.3403 2.6543 17.5063C2.83138 17.6779 3.08594 17.7637 3.41797 17.7637H12.5654C12.8975 17.7637 13.152 17.6779 13.3291 17.5063C13.5062 17.3403 13.5947 17.083 13.5947 16.7344V9.28857C13.5947 8.93441 13.5062 8.67432 13.3291 8.5083C13.152 8.33675 12.8975 8.25098 12.5654 8.25098H10.6646V6.10938H12.8062C13.7524 6.10938 14.4774 6.36117 14.981 6.86475C15.4845 7.36279 15.7363 8.08219 15.7363 9.02295V16.9917C15.7363 17.9325 15.4845 18.6519 14.981 19.1499C14.4774 19.6535 13.7524 19.9053 12.8062 19.9053H3.18555ZM7.9917 13.0903C7.72607 13.0903 7.49919 12.9963 7.31104 12.8081C7.12842 12.62 7.03711 12.3958 7.03711 12.1357V4.05908L7.12012 2.83887L6.68018 3.48633L5.68408 4.54883C5.51253 4.73145 5.30225 4.82275 5.05322 4.82275C4.83187 4.82275 4.63818 4.74805 4.47217 4.59863C4.30615 4.44922 4.22314 4.2583 4.22314 4.02588C4.22314 3.81006 4.30892 3.61361 4.48047 3.43652L7.23633 0.796875C7.36361 0.669596 7.48812 0.581055 7.60986 0.53125C7.73714 0.481445 7.86442 0.456543 7.9917 0.456543C8.12451 0.456543 8.25179 0.481445 8.37354 0.53125C8.50081 0.581055 8.62809 0.669596 8.75537 0.796875L11.5112 3.43652C11.6828 3.61361 11.7686 3.81006 11.7686 4.02588C11.7686 4.2583 11.6828 4.44922 11.5112 4.59863C11.3452 4.74805 11.1543 4.82275 10.9385 4.82275C10.6895 4.82275 10.4792 4.73145 10.3076 4.54883L9.30322 3.48633L8.87158 2.83887L8.95459 4.05908V12.1357C8.95459 12.3958 8.86051 12.62 8.67236 12.8081C8.48975 12.9963 8.26286 13.0903 7.9917 13.0903Z" fill="white"/>
</svg>
