<svg width="28" height="23" viewBox="0 0 28 23" fill="none" xmlns="http://www.w3.org/2000/svg">
<path d="M19.2383 3.98047C18.7695 3.98047 18.3711 3.81641 18.043 3.48828C17.7148 3.16016 17.5508 2.76172 17.5508 2.29297C17.5508 1.82422 17.7148 1.42578 18.043 1.09766C18.3711 0.769531 18.7695 0.605469 19.2383 0.605469H25.6484C26.1172 0.605469 26.5156 0.769531 26.8438 1.09766C27.1719 1.42578 27.3359 1.82422 27.3359 2.29297C27.3359 2.76172 27.1719 3.16016 26.8438 3.48828C26.5156 3.81641 26.1172 3.98047 25.6484 3.98047H19.2383ZM19.2383 10.1211C18.7695 10.1211 18.3711 9.95703 18.043 9.62891C17.7148 9.29297 17.5508 8.89062 17.5508 8.42188C17.5508 7.95312 17.7148 7.55469 18.043 7.22656C18.3711 6.89844 18.7695 6.73438 19.2383 6.73438H25.6484C26.1172 6.73438 26.5156 6.89844 26.8438 7.22656C27.1719 7.55469 27.3359 7.95312 27.3359 8.42188C27.3359 8.89062 27.1719 9.29297 26.8438 9.62891C26.5156 9.95703 26.1172 10.1211 25.6484 10.1211H19.2383ZM2.35156 16.25C1.88281 16.25 1.48438 16.0859 1.15625 15.7578C0.828125 15.4297 0.664062 15.0312 0.664062 14.5625C0.664062 14.0938 0.828125 13.6953 1.15625 13.3672C1.48438 13.0312 1.88281 12.8633 2.35156 12.8633H25.6484C26.1172 12.8633 26.5156 13.0312 26.8438 13.3672C27.1719 13.6953 27.3359 14.0938 27.3359 14.5625C27.3359 15.0312 27.1719 15.4297 26.8438 15.7578C26.5156 16.0859 26.1172 16.25 25.6484 16.25H2.35156ZM2.35156 22.3789C1.88281 22.3789 1.48438 22.2148 1.15625 21.8867C0.828125 21.5586 0.664062 21.1602 0.664062 20.6914C0.664062 20.2227 0.828125 19.8242 1.15625 19.4961C1.48438 19.168 1.88281 19.0039 2.35156 19.0039H25.6484C26.1172 19.0039 26.5156 19.168 26.8438 19.4961C27.1719 19.8242 27.3359 20.2227 27.3359 20.6914C27.3359 21.1602 27.1719 21.5586 26.8438 21.8867C26.5156 22.2148 26.1172 22.3789 25.6484 22.3789H2.35156ZM4.21484 10.168C3.14453 10.168 2.28516 9.78906 1.63672 9.03125C0.988281 8.27344 0.664062 7.26172 0.664062 5.99609C0.664062 4.93359 0.898438 3.99609 1.36719 3.18359C1.84375 2.37109 2.46875 1.73828 3.24219 1.28516C4.01562 0.832031 4.84766 0.605469 5.73828 0.605469C6.09766 0.605469 6.39844 0.707031 6.64062 0.910156C6.88281 1.11328 7.00391 1.36719 7.00391 1.67188C7.00391 1.92969 6.91406 2.16016 6.73438 2.36328C6.55469 2.56641 6.33203 2.67969 6.06641 2.70312C5.41797 2.75781 4.85547 2.92578 4.37891 3.20703C3.90234 3.48047 3.53516 3.83984 3.27734 4.28516C3.01953 4.72266 2.88672 5.22266 2.87891 5.78516L2.53906 5.46875C2.80469 4.99219 3.13672 4.66406 3.53516 4.48438C3.93359 4.30469 4.35156 4.21484 4.78906 4.21484C5.53906 4.21484 6.16797 4.48828 6.67578 5.03516C7.19141 5.57422 7.44922 6.26172 7.44922 7.09766C7.44922 7.68359 7.30469 8.20703 7.01562 8.66797C6.73438 9.12891 6.34766 9.49609 5.85547 9.76953C5.37109 10.0352 4.82422 10.168 4.21484 10.168ZM12.2305 10.168C11.1523 10.168 10.2852 9.78906 9.62891 9.03125C8.98047 8.27344 8.65625 7.26172 8.65625 5.99609C8.65625 4.93359 8.89453 3.99609 9.37109 3.18359C9.84766 2.37109 10.4727 1.73828 11.2461 1.28516C12.0195 0.832031 12.8516 0.605469 13.7422 0.605469C14.1016 0.605469 14.4023 0.707031 14.6445 0.910156C14.8867 1.11328 15.0078 1.36719 15.0078 1.67188C15.0078 1.92969 14.9141 2.16016 14.7266 2.36328C14.5469 2.56641 14.3242 2.67969 14.0586 2.70312C13.4102 2.75781 12.8477 2.92578 12.3711 3.20703C11.8945 3.48047 11.5273 3.83984 11.2695 4.28516C11.0117 4.72266 10.8828 5.22266 10.8828 5.78516L10.5312 5.46875C10.7969 4.99219 11.1289 4.66406 11.5273 4.48438C11.9258 4.30469 12.3477 4.21484 12.793 4.21484C13.5352 4.21484 14.1602 4.48828 14.668 5.03516C15.1836 5.57422 15.4414 6.26172 15.4414 7.09766C15.4414 7.68359 15.2969 8.20703 15.0078 8.66797C14.7266 9.12891 14.3398 9.49609 13.8477 9.76953C13.3633 10.0352 12.8242 10.168 12.2305 10.168Z" fill="white"/>
</svg>
