<svg width="24" height="21" viewBox="0 0 24 21" fill="none" xmlns="http://www.w3.org/2000/svg">
<path d="M16.2891 2.18359C16.0391 2.18359 15.8281 2.09766 15.6562 1.92578C15.4922 1.75391 15.4102 1.54297 15.4102 1.29297C15.4102 1.05078 15.4922 0.84375 15.6562 0.671875C15.8281 0.5 16.0391 0.414062 16.2891 0.414062H22.8984C23.1484 0.414062 23.3594 0.5 23.5312 0.671875C23.7109 0.84375 23.8008 1.05078 23.8008 1.29297C23.8008 1.54297 23.7109 1.75391 23.5312 1.92578C23.3594 2.09766 23.1484 2.18359 22.8984 2.18359H16.2891ZM16.2891 8.32422C16.0391 8.32422 15.8281 8.23828 15.6562 8.06641C15.4922 7.89453 15.4102 7.68359 15.4102 7.43359C15.4102 7.18359 15.4922 6.97656 15.6562 6.8125C15.8281 6.64062 16.0391 6.55469 16.2891 6.55469H22.8984C23.1484 6.55469 23.3594 6.64062 23.5312 6.8125C23.7109 6.97656 23.8008 7.18359 23.8008 7.43359C23.8008 7.68359 23.7109 7.89453 23.5312 8.06641C23.3594 8.23828 23.1484 8.32422 22.8984 8.32422H16.2891ZM1.06641 14.4648C0.824219 14.4648 0.617188 14.3789 0.445312 14.207C0.273438 14.0352 0.1875 13.8242 0.1875 13.5742C0.1875 13.3242 0.273438 13.1172 0.445312 12.9531C0.617188 12.7812 0.824219 12.6953 1.06641 12.6953H22.8984C23.1484 12.6953 23.3594 12.7812 23.5312 12.9531C23.7109 13.1172 23.8008 13.3242 23.8008 13.5742C23.8008 13.8242 23.7109 14.0352 23.5312 14.207C23.3594 14.3789 23.1484 14.4648 22.8984 14.4648H1.06641ZM1.06641 20.5938C0.824219 20.5938 0.617188 20.5078 0.445312 20.3359C0.273438 20.1719 0.1875 19.9648 0.1875 19.7148C0.1875 19.4648 0.273438 19.2539 0.445312 19.082C0.617188 18.9102 0.824219 18.8242 1.06641 18.8242H22.8984C23.1484 18.8242 23.3594 18.9102 23.5312 19.082C23.7109 19.2539 23.8008 19.4648 23.8008 19.7148C23.8008 19.9648 23.7109 20.1719 23.5312 20.3359C23.3594 20.5078 23.1484 20.5938 22.8984 20.5938H1.06641ZM3.42188 9.08594C2.53125 9.08594 1.77344 8.77344 1.14844 8.14844C0.53125 7.51562 0.222656 6.67188 0.222656 5.61719C0.222656 4.63281 0.453125 3.74609 0.914062 2.95703C1.38281 2.16797 1.99219 1.54688 2.74219 1.09375C3.5 0.632813 4.32031 0.402344 5.20312 0.402344C5.49219 0.402344 5.73438 0.472656 5.92969 0.613281C6.125 0.753906 6.22266 0.957031 6.22266 1.22266C6.22266 1.44141 6.14844 1.625 6 1.77344C5.85156 1.92188 5.66797 2 5.44922 2.00781C4.80078 2.03906 4.22656 2.20703 3.72656 2.51172C3.22656 2.81641 2.82812 3.23047 2.53125 3.75391C2.23438 4.27734 2.06641 4.88281 2.02734 5.57031L1.83984 5.54688C1.95703 5.03906 2.17969 4.66016 2.50781 4.41016C2.83594 4.15234 3.24219 4.02344 3.72656 4.02344C4.42188 4.02344 4.99609 4.25 5.44922 4.70312C5.91016 5.15625 6.14062 5.75781 6.14062 6.50781C6.14062 7.03125 6.01562 7.48828 5.76562 7.87891C5.52344 8.26172 5.19531 8.55859 4.78125 8.76953C4.36719 8.98047 3.91406 9.08594 3.42188 9.08594ZM10.5938 9.08594C9.70312 9.08594 8.94531 8.77344 8.32031 8.14844C7.70312 7.51562 7.39453 6.67188 7.39453 5.61719C7.39453 4.63281 7.625 3.74609 8.08594 2.95703C8.55469 2.16797 9.16797 1.54688 9.92578 1.09375C10.6836 0.632813 11.5 0.402344 12.375 0.402344C12.6719 0.402344 12.918 0.472656 13.1133 0.613281C13.3086 0.753906 13.4062 0.957031 13.4062 1.22266C13.4062 1.44141 13.332 1.625 13.1836 1.77344C13.0352 1.92188 12.8438 2 12.6094 2.00781C11.9688 2.03906 11.3984 2.20703 10.8984 2.51172C10.3984 2.80859 10 3.22266 9.70312 3.75391C9.40625 4.27734 9.23828 4.88281 9.19922 5.57031L9.01172 5.54688C9.12891 5.03906 9.35156 4.66016 9.67969 4.41016C10.0156 4.15234 10.4219 4.02344 10.8984 4.02344C11.6016 4.02344 12.1797 4.25 12.6328 4.70312C13.0938 5.15625 13.3242 5.75781 13.3242 6.50781C13.3242 7.03125 13.1992 7.48828 12.9492 7.87891C12.6992 8.26172 12.3672 8.55859 11.9531 8.76953C11.5391 8.98047 11.0859 9.08594 10.5938 9.08594Z" fill="#F9C55F"/>
</svg>
