<svg width="22" height="27" viewBox="0 0 22 27" fill="none" xmlns="http://www.w3.org/2000/svg">
<path d="M0.40625 22.9375V5.48828C0.40625 4.42578 0.691406 3.62109 1.26172 3.07422C1.83984 2.52734 2.60547 2.22656 3.55859 2.17188C4.96484 2.08594 6.29688 1.96875 7.55469 1.82031C8.8125 1.66406 10.0156 1.48437 11.1641 1.28125C12.3203 1.07813 13.4453 0.851562 14.5391 0.601562C15.6641 0.335937 16.5273 0.46875 17.1289 1C17.7305 1.53125 18.0312 2.37891 18.0312 3.54297V20.6992C18.0312 21.7227 17.8555 22.4844 17.5039 22.9844C17.1523 23.4922 16.5586 23.8633 15.7227 24.0977C14.2383 24.5039 12.8398 24.8242 11.5273 25.0586C10.2148 25.3008 8.93359 25.4844 7.68359 25.6094C6.43359 25.7344 5.15234 25.832 3.83984 25.9023C2.75391 25.9648 1.91016 25.7383 1.30859 25.2227C0.707031 24.7148 0.40625 23.9531 0.40625 22.9375ZM2.29297 22.5977C2.29297 23.0742 2.4375 23.4336 2.72656 23.6758C3.01562 23.9258 3.41406 24.0391 3.92188 24.0156C5.21875 23.9531 6.47266 23.8594 7.68359 23.7344C8.89453 23.6172 10.0898 23.4531 11.2695 23.2422C12.457 23.0312 13.6641 22.7578 14.8906 22.4219C15.3438 22.3047 15.6641 22.1133 15.8516 21.8477C16.0469 21.5742 16.1445 21.168 16.1445 20.6289V3.87109C16.1445 3.34766 15.9922 2.95703 15.6875 2.69922C15.3906 2.44141 14.9727 2.375 14.4336 2.5C13.3633 2.74219 12.2617 2.96484 11.1289 3.16797C10.0039 3.37109 8.83203 3.54687 7.61328 3.69531C6.40234 3.84375 5.12109 3.95312 3.76953 4.02344C3.33984 4.04688 2.98438 4.16797 2.70312 4.38672C2.42969 4.59766 2.29297 4.94922 2.29297 5.44141V22.5977ZM4.85938 8.17188C4.66406 8.1875 4.5 8.13281 4.36719 8.00781C4.24219 7.88281 4.17969 7.72656 4.17969 7.53906C4.17969 7.35938 4.23438 7.20703 4.34375 7.08203C4.46094 6.94922 4.63281 6.875 4.85938 6.85938C6.52344 6.75781 8.04688 6.59766 9.42969 6.37891C10.8125 6.15234 12.1562 5.89453 13.4609 5.60547C13.7188 5.55078 13.9141 5.58984 14.0469 5.72266C14.1875 5.84766 14.2578 6 14.2578 6.17969C14.2578 6.34375 14.2109 6.49219 14.1172 6.625C14.0312 6.75 13.8555 6.83984 13.5898 6.89453C12.2227 7.19922 10.8398 7.46484 9.44141 7.69141C8.05078 7.91016 6.52344 8.07031 4.85938 8.17188ZM4.85938 11.9453C4.66406 11.9531 4.5 11.8945 4.36719 11.7695C4.24219 11.6445 4.17969 11.4883 4.17969 11.3008C4.17969 11.1289 4.23438 10.9805 4.34375 10.8555C4.46094 10.7227 4.63281 10.6484 4.85938 10.6328C6.52344 10.5234 8.04688 10.3594 9.42969 10.1406C10.8125 9.92188 12.1562 9.66797 13.4609 9.37891C13.7188 9.32422 13.9141 9.36328 14.0469 9.49609C14.1875 9.62109 14.2578 9.77344 14.2578 9.95312C14.2578 10.1172 14.2109 10.2617 14.1172 10.3867C14.0312 10.5117 13.8555 10.6055 13.5898 10.668C12.2227 10.9727 10.8398 11.2344 9.44141 11.4531C8.05078 11.6719 6.52344 11.8359 4.85938 11.9453ZM4.85938 15.7188C4.66406 15.7266 4.5 15.668 4.36719 15.543C4.24219 15.418 4.17969 15.2617 4.17969 15.0742C4.17969 14.9023 4.23438 14.7539 4.34375 14.6289C4.46094 14.4961 4.63281 14.4219 4.85938 14.4062C6.52344 14.2969 8.04688 14.1328 9.42969 13.9141C10.8125 13.6953 12.1562 13.4414 13.4609 13.1523C13.7188 13.0977 13.9141 13.1328 14.0469 13.2578C14.1875 13.3828 14.2578 13.5391 14.2578 13.7266C14.2578 13.8906 14.2109 14.0352 14.1172 14.1602C14.0312 14.2852 13.8555 14.3789 13.5898 14.4414C12.2227 14.7383 10.8398 15 9.44141 15.2266C8.05078 15.4453 6.52344 15.6094 4.85938 15.7188ZM4.85938 19.4805C4.66406 19.4883 4.5 19.4297 4.36719 19.3047C4.24219 19.1797 4.17969 19.0234 4.17969 18.8359C4.17969 18.6641 4.23438 18.5156 4.34375 18.3906C4.46094 18.2578 4.63281 18.1836 4.85938 18.168C5.80469 18.1133 6.60938 18.0469 7.27344 17.9688C7.94531 17.8828 8.5625 17.7969 9.125 17.7109C9.39062 17.6641 9.58984 17.707 9.72266 17.8398C9.86328 17.9727 9.93359 18.1289 9.93359 18.3086C9.93359 18.457 9.88281 18.5977 9.78125 18.7305C9.67969 18.8633 9.53125 18.9492 9.33594 18.9883C8.70312 19.0898 8.03906 19.1836 7.34375 19.2695C6.64844 19.3555 5.82031 19.4258 4.85938 19.4805ZM9.76953 26.9688C10.7539 26.8203 11.7773 26.6367 12.8398 26.418C13.9023 26.1992 15.0117 25.9375 16.168 25.6328C16.957 25.4062 17.6055 25.082 18.1133 24.6602C18.6289 24.2383 19.0117 23.6992 19.2617 23.043C19.5117 22.3945 19.6367 21.6133 19.6367 20.6992V3.54297C19.6367 3.36328 19.6289 3.19141 19.6133 3.02734C19.6055 2.86328 19.5938 2.70312 19.5781 2.54688C20.2422 2.74219 20.7422 3.12109 21.0781 3.68359C21.4219 4.23828 21.5938 4.96875 21.5938 5.875V23.3008C21.5938 24.5273 21.293 25.4453 20.6914 26.0547C20.0898 26.6641 19.1836 26.9688 17.9727 26.9688H9.76953Z" fill="white"/>
</svg>
